<svg version="1.1" id="Layer_1" xmlns="http://www.w3.org/2000/svg" xmlns:xlink="http://www.w3.org/1999/xlink" x="0px" y="0px"
	 width="100%" viewBox="0 0 1024 1024" enable-background="new 0 0 1024 1024" xml:space="preserve">
<path fill="#101E40" opacity="1.000000" stroke="none" 
	d="
M568.000000,1025.000000 
	C378.666656,1025.000000 189.833328,1025.000000 1.000000,1025.000000 
	C1.000000,683.666687 1.000000,342.333344 1.000000,1.000000 
	C342.333344,1.000000 683.666687,1.000000 1025.000000,1.000000 
	C1025.000000,342.333344 1025.000000,683.666687 1025.000000,1025.000000 
	C872.833313,1025.000000 720.666687,1025.000000 568.000000,1025.000000 
M449.731995,450.650635 
	C450.494629,452.077026 451.257263,453.503387 452.177063,455.594208 
	C455.508057,460.507416 460.237671,462.014313 465.998322,461.827179 
	C473.656281,461.578339 481.329620,461.707733 488.994751,461.801758 
	C496.618958,461.895264 498.779297,464.757965 496.911285,472.226746 
	C495.942810,476.098877 494.728302,479.908783 493.692078,483.764801 
	C490.626587,495.172180 487.486694,506.562134 484.680450,518.033447 
	C484.313873,519.531860 485.264709,522.371826 486.434723,522.971008 
	C487.925781,523.734619 490.405121,523.229492 492.187500,522.555115 
	C493.627838,522.010132 494.713806,520.450562 495.876831,519.262634 
	C511.261932,503.548065 526.678345,487.863831 541.988098,472.076172 
	C549.737183,464.085205 557.286987,455.900970 565.502075,447.549286 
	C566.279785,446.093323 567.057495,444.637390 568.526245,443.004150 
	C570.335266,441.546570 572.168213,440.117554 573.948425,438.625580 
	C577.973511,435.252167 580.124207,431.037354 578.372314,425.837982 
	C576.576660,420.508789 572.432373,417.227997 566.952454,416.700684 
	C560.186584,416.049561 553.329346,416.407318 546.534302,415.973450 
	C543.512512,415.780487 540.546204,414.717133 537.814819,413.470428 
	C538.161560,412.967010 538.508362,412.463593 539.428467,411.607361 
	C553.427429,397.604156 567.431152,383.605804 581.422058,369.594543 
	C585.191833,365.819275 586.502258,361.425354 584.236267,356.412567 
	C582.042725,351.560242 577.899841,349.995483 572.846191,349.994324 
	C555.370544,349.990387 537.894897,349.898560 520.419250,349.897308 
	C516.947937,349.897034 513.476624,350.149353 509.261414,350.189514 
	C508.641907,350.518677 508.022400,350.847839 506.533447,350.679932 
	C505.050507,350.531311 503.567902,350.257355 502.084534,350.253052 
	C482.108215,350.195435 462.131775,350.191528 442.155426,350.135193 
	C436.792999,350.120087 432.221100,351.467102 429.916199,356.878082 
	C427.572144,362.381012 430.210999,366.508759 433.826447,370.291809 
	C435.089630,371.613525 436.452698,372.842773 437.806183,374.074677 
	C445.557098,381.129486 453.334167,388.155670 461.063049,395.234497 
	C462.473511,396.526306 463.702484,398.016296 465.159912,399.568909 
	C462.191040,402.985992 459.591919,405.977478 456.360870,409.187439 
	C453.849945,411.752686 451.339020,414.317932 448.913208,416.914154 
	C448.913208,416.914154 448.929169,416.825012 448.272583,417.025208 
	C444.653046,420.587402 440.631409,423.836761 437.540161,427.809967 
	C435.031281,431.034637 433.609894,435.127289 437.050812,439.492096 
	C437.167603,439.797028 437.378113,440.008911 437.857758,440.805450 
	C441.816254,443.841400 445.774780,446.877319 449.731995,450.650635 
M370.210907,592.518250 
	C369.255341,596.076599 368.299744,599.634888 367.344177,603.193237 
	C365.834320,601.675415 365.309906,600.164001 364.846039,598.634277 
	C361.997223,589.239685 359.245880,579.814026 356.233398,570.472412 
	C355.773376,569.046021 354.217072,567.066223 353.012207,566.949524 
	C348.624176,566.524658 344.170044,566.781677 339.432037,566.781677 
	C346.192474,586.537231 352.739319,605.668579 359.250854,624.696655 
	C372.988373,625.696899 372.994720,625.699036 377.255005,613.100159 
	C377.894257,611.209717 378.426117,609.283203 379.035217,607.382263 
	C380.629944,602.405334 382.239929,597.433228 384.252716,591.191162 
	C388.346649,603.361633 391.980194,614.163574 395.615234,624.969971 
	C399.578552,624.969971 403.080963,624.795227 406.556671,625.024902 
	C409.378418,625.211304 410.601074,624.277832 411.379822,621.451294 
	C413.101715,615.201599 415.419983,609.119141 417.334229,602.918945 
	C420.993500,591.066345 424.540619,579.179077 428.186401,567.134155 
	C422.903870,567.134155 418.170319,567.134155 413.354340,567.134155 
	C409.925842,579.479797 406.583984,591.513489 402.885803,604.830139 
	C401.861664,602.061584 401.241669,600.572083 400.755219,599.040222 
	C397.733856,589.525513 394.566406,580.051392 391.830658,570.454590 
	C390.787598,566.795654 388.571259,566.244873 385.522644,566.576538 
	C382.362549,566.920410 378.476440,565.088928 377.100037,570.282471 
	C375.182983,577.516235 372.701508,584.600464 370.210907,592.518250 
M332.703430,615.161194 
	C339.548035,603.089905 336.589386,591.841431 324.464020,585.132690 
	C320.568512,582.977478 316.219971,581.620239 312.032043,580.019897 
	C307.533051,578.300781 302.892731,576.925964 298.476562,575.023621 
	C294.926422,573.494507 292.406250,570.854736 292.859528,566.524109 
	C293.304352,562.274353 296.180725,560.206787 299.917084,559.068054 
	C308.537933,556.440491 315.773010,559.734863 321.634827,569.148987 
	C323.749817,568.795776 326.048340,568.522095 328.293457,568.013062 
	C332.440369,567.072632 333.577881,564.780090 331.941864,560.659668 
	C329.462585,554.415283 325.457764,550.028015 319.080933,547.621277 
	C310.285339,544.301697 301.415771,544.166687 292.650513,547.073486 
	C276.238495,552.516174 272.097717,573.315613 285.370667,584.293762 
	C289.092896,587.372437 293.987671,589.168335 298.547760,591.063965 
	C303.907196,593.291992 309.578186,594.770325 314.938995,596.995605 
	C318.174286,598.338562 321.337708,600.433228 320.939575,604.690918 
	C320.544403,608.917053 317.371033,610.884888 313.792023,612.196838 
	C303.576324,615.941589 294.107269,611.546021 289.437042,600.751282 
	C287.226471,600.910950 284.910400,601.004761 282.613251,601.264954 
	C280.357635,601.520447 278.121216,601.945068 275.949249,602.284058 
	C276.122925,612.663391 282.650330,620.759033 293.788422,624.790649 
	C307.192413,629.642578 323.721710,625.748718 332.703430,615.161194 
M560.573547,625.030212 
	C563.494263,625.030212 566.415039,625.030212 570.002930,625.030212 
	C570.002930,618.280579 570.139526,612.319885 569.954895,606.369019 
	C569.832336,602.420288 571.489075,601.147766 575.318237,601.229187 
	C582.294128,601.377502 589.321655,601.577332 596.249756,600.926575 
	C607.474854,599.872192 617.570374,589.769775 619.036438,578.934387 
	C620.970032,564.643494 616.491882,554.873108 603.710632,550.621948 
	C595.905579,548.025879 587.112244,548.105774 578.726257,547.635498 
	C570.483032,547.173340 562.193604,547.534729 553.737793,547.534729 
	C553.737793,573.519104 553.737793,599.034546 553.737793,625.022461 
	C556.011780,625.022461 557.822449,625.022461 560.573547,625.030212 
M679.178894,624.989075 
	C680.299500,623.953857 682.378723,622.932373 682.393799,621.881348 
	C682.560852,610.229614 682.699585,598.561829 682.244446,586.921936 
	C681.912476,578.431152 677.270386,571.929626 669.811523,568.250916 
	C658.700134,562.770752 647.271423,562.804810 636.299316,568.961792 
	C630.911255,571.985352 628.236206,577.056824 626.934509,583.604553 
	C629.357788,583.968323 631.436340,584.341309 633.530212,584.581604 
	C637.668518,585.056580 641.227722,585.420166 644.252747,580.848328 
	C647.590881,575.803223 659.595398,576.350525 663.600098,581.300659 
	C665.243286,583.331726 665.644592,586.367371 666.610840,588.946045 
	C664.374756,589.517883 662.158813,590.198120 659.894714,590.619507 
	C658.605225,590.859497 657.237183,590.676147 655.904480,590.685059 
	C648.368286,590.735352 640.903137,591.125427 634.063965,594.859375 
	C628.617676,597.833008 625.646057,602.112854 626.029724,608.592834 
	C626.597229,618.176880 634.231750,625.426514 645.373352,626.762756 
	C653.277771,627.710754 660.566223,625.988647 667.315063,621.534912 
	C669.881775,627.064880 674.504944,624.502014 679.178894,624.989075 
M484.636902,544.997925 
	C472.406921,547.888062 468.537201,556.676025 468.768524,568.344116 
	C466.080750,568.344116 463.800232,568.344116 461.281616,568.344116 
	C461.281616,573.007385 461.281616,577.394165 461.281616,581.868774 
	C463.992584,582.041199 466.394592,582.193970 469.241089,582.374939 
	C469.241089,596.791931 469.241089,610.720459 469.241089,624.787231 
	C474.316742,624.787231 478.904297,624.787231 484.082825,624.787231 
	C484.082825,610.498169 484.082825,596.443176 484.082825,581.999939 
	C488.092163,581.999939 491.513275,581.999939 494.963257,581.999939 
	C494.963257,577.484192 494.963257,573.375854 494.963257,569.056458 
	C492.889862,569.056458 491.068817,569.056458 489.247772,569.056458 
	C487.458435,569.056458 485.669067,569.056458 483.913208,569.056458 
	C483.238861,558.123047 484.404114,556.959106 494.601929,558.615051 
	C499.251678,559.370117 500.659698,557.220337 501.276550,553.017517 
	C501.878082,548.919189 502.143219,545.407104 496.898529,544.954224 
	C493.112701,544.627319 489.276276,544.885681 484.636902,544.997925 
M510.122772,610.131042 
	C512.325500,622.153748 522.816345,628.154114 539.571045,624.672119 
	C539.571045,620.562195 539.571045,616.469238 539.571045,612.573792 
	C537.125366,612.573792 534.991516,612.724670 532.886658,612.541931 
	C528.703247,612.178711 525.126404,610.370789 524.900269,605.832642 
	C524.513367,598.068420 524.793518,590.270996 524.793518,582.185059 
	C529.462585,582.185059 533.593323,582.185059 537.701294,582.185059 
	C537.701294,577.298096 537.701294,572.734863 537.701294,567.992249 
	C533.264832,567.992249 529.176208,567.992249 524.496521,567.992249 
	C524.496521,563.274902 524.496521,558.734070 524.496521,554.172913 
	C519.339172,554.825623 514.785095,555.401978 509.716370,556.043457 
	C509.716370,560.000610 509.716370,563.755554 509.716370,567.713074 
	C506.604279,567.899109 504.027435,568.053162 501.264343,568.218384 
	C501.264343,572.953308 501.264343,577.354614 501.264343,582.307983 
	C504.167877,582.307983 506.891357,582.307983 510.022766,582.307983 
	C510.022766,591.664124 510.022766,600.472778 510.122772,610.131042 
M721.934998,635.562866 
	C732.848694,612.678772 743.762329,589.794617 755.150208,565.916077 
	C749.758606,565.916077 745.280701,565.666870 740.860657,566.062866 
	C739.474060,566.187134 737.721985,567.783997 737.028503,569.156982 
	C733.503845,576.135254 730.285950,583.268066 726.931274,590.332764 
	C725.398438,593.560608 723.797729,596.756287 721.711121,601.023193 
	C719.930542,598.225647 718.629089,596.563477 717.732666,594.705872 
	C713.971680,586.912048 710.451904,578.999390 706.567383,571.269165 
	C705.534302,569.213196 703.704407,566.366516 701.918579,566.108215 
	C696.995056,565.396179 691.901123,565.862061 686.015564,565.862061 
	C688.141541,569.620789 689.691895,572.155579 691.046204,574.791199 
	C697.886597,588.102783 704.525391,601.521240 711.596558,614.708313 
	C713.220215,617.736206 713.509277,619.909790 711.895630,622.940247 
	C708.170959,629.935669 704.828857,637.134827 700.982056,644.962524 
	C703.691895,644.962524 705.671204,644.713562 707.566650,645.006714 
	C714.835815,646.131287 719.714050,643.625122 721.934998,635.562866 
M436.566528,603.499207 
	C436.566528,610.592590 436.566528,617.685974 436.566528,624.776733 
	C441.893555,624.776733 446.613770,624.776733 451.414062,624.776733 
	C451.414062,605.449585 451.414062,586.514587 451.414062,567.292114 
	C446.295380,567.292114 441.430450,567.292114 436.564789,567.292114 
	C436.564789,579.248840 436.564789,590.874084 436.566528,603.499207 
M452.269867,546.502502 
	C448.928894,541.218201 443.762604,539.237854 438.805298,541.341187 
	C434.703613,543.081482 432.615326,547.507019 433.738922,552.077881 
	C435.167053,557.887634 438.844330,560.069641 445.494019,559.053223 
	C450.498932,558.288147 453.071228,553.991211 452.269867,546.502502 
z"/>
<path fill="#F8F9F9" opacity="1.000000" stroke="none" 
	d="
M564.926758,447.804077 
	C557.286987,455.900970 549.737183,464.085205 541.988098,472.076172 
	C526.678345,487.863831 511.261932,503.548065 495.876831,519.262634 
	C494.713806,520.450562 493.627838,522.010132 492.187500,522.555115 
	C490.405121,523.229492 487.925781,523.734619 486.434723,522.971008 
	C485.264709,522.371826 484.313873,519.531860 484.680450,518.033447 
	C487.486694,506.562134 490.626587,495.172180 493.692078,483.764801 
	C494.728302,479.908783 495.942810,476.098877 496.911285,472.226746 
	C498.779297,464.757965 496.618958,461.895264 488.994751,461.801758 
	C481.329620,461.707733 473.656281,461.578339 465.998322,461.827179 
	C460.237671,462.014313 455.508057,460.507416 452.165924,454.864075 
	C452.384186,451.926788 452.613617,449.719696 452.907837,447.240540 
	C453.331543,446.326935 453.690491,445.685364 454.025330,445.021912 
	C454.001221,445.000000 454.043976,445.048492 454.330292,444.959045 
	C455.135040,444.579895 455.653473,444.290131 456.337830,443.885681 
	C456.711517,443.594696 456.878906,443.386017 457.006104,443.084290 
	C457.006226,443.023590 457.127563,443.026611 457.412354,442.961975 
	C458.144226,442.318939 458.591339,441.740509 459.039307,441.089081 
	C459.040131,441.016113 459.186066,441.017090 459.549591,440.998657 
	C463.860870,438.237762 469.914886,437.642242 470.255981,430.900879 
	C470.696320,430.582336 470.892609,430.346832 471.403137,430.042786 
	C476.554169,426.329376 481.565430,422.894562 486.065948,418.886261 
	C490.410095,415.017273 494.341309,410.658325 498.221283,406.307159 
	C499.822357,404.511597 500.816376,402.174744 502.423157,400.001343 
	C504.206024,398.308594 505.652313,396.698639 507.454956,395.055115 
	C513.622559,389.496399 520.010498,384.441895 525.039917,378.278778 
	C528.330383,374.246613 524.150269,368.564941 518.605347,369.042664 
	C517.483459,368.871368 516.744141,368.690674 515.906616,368.189087 
	C511.025574,363.989166 505.603241,362.858521 499.029358,365.212158 
	C502.106567,360.384003 504.507050,356.617615 506.919678,352.892181 
	C506.931793,352.933136 506.850403,352.907135 507.207703,352.922089 
	C508.378418,352.053101 509.191895,351.169128 510.005341,350.285187 
	C513.476624,350.149353 516.947937,349.897034 520.419250,349.897308 
	C537.894897,349.898560 555.370544,349.990387 572.846191,349.994324 
	C577.899841,349.995483 582.042725,351.560242 584.236267,356.412567 
	C586.502258,361.425354 585.191833,365.819275 581.422058,369.594543 
	C567.431152,383.605804 553.427429,397.604156 538.794861,411.850098 
	C537.398438,412.416687 536.619507,412.707550 535.875366,413.069824 
	C531.199097,415.346191 527.584778,420.651367 528.278015,424.193176 
	C529.054810,428.161774 533.947632,430.997833 540.023560,431.002167 
	C542.514771,431.003937 545.131958,430.514618 547.471008,431.112518 
	C552.319824,432.351929 558.566406,430.805450 561.424133,436.437286 
	C563.192078,439.921570 563.798767,443.995087 564.926758,447.804077 
z"/>
<path fill="#12C5BC" opacity="1.000000" stroke="none" 
	d="
M456.992798,408.968994 
	C459.591919,405.977478 462.191040,402.985992 465.159912,399.568909 
	C463.702484,398.016296 462.473511,396.526306 461.063049,395.234497 
	C453.334167,388.155670 445.557098,381.129486 437.806183,374.074677 
	C436.452698,372.842773 435.089630,371.613525 433.826447,370.291809 
	C430.210999,366.508759 427.572144,362.381012 429.916199,356.878082 
	C432.221100,351.467102 436.792999,350.120087 442.155426,350.135193 
	C462.131775,350.191528 482.108215,350.195435 502.084534,350.253052 
	C503.567902,350.257355 505.050507,350.531311 506.964233,351.163666 
	C507.213501,352.067322 507.031952,352.487213 506.850403,352.907135 
	C506.850403,352.907135 506.931793,352.933136 506.607544,353.009460 
	C502.442627,357.181976 498.534302,361.218567 494.822296,365.428192 
	C494.136261,366.206146 494.243439,367.683502 494.283203,369.136597 
	C500.845001,369.629486 507.150726,369.465424 513.349731,370.200806 
	C515.714417,370.481323 518.450928,372.400513 519.819824,374.395203 
	C520.563416,375.478638 518.857910,378.313110 518.132324,380.312469 
	C517.540955,381.942139 516.764221,383.504547 516.042053,385.056152 
	C516.014404,385.015503 516.097412,385.068146 515.724976,385.054871 
	C514.575378,386.040100 513.798218,387.038574 513.010376,388.018555 
	C512.999756,388.000000 513.036926,388.020813 512.670532,388.015106 
	C508.932434,391.407318 505.560852,394.805206 502.173645,398.120911 
	C502.158081,398.038666 502.235107,398.187317 501.886475,398.185944 
	C501.087646,398.872772 500.637482,399.560944 500.162231,400.201447 
	C500.137115,400.153778 500.239777,400.186432 499.861450,400.178436 
	C498.704224,401.264923 497.925293,402.359406 497.049133,403.718811 
	C496.349335,404.406799 495.746765,404.829865 494.932312,405.000854 
	C493.869965,405.893890 493.019501,407.039001 492.082458,408.133698 
	C491.995911,408.083282 492.181244,408.158447 491.848938,408.158264 
	C491.174622,408.632294 490.832581,409.106476 490.400452,409.562561 
	C490.310364,409.544464 490.490875,409.509674 490.196991,409.502716 
	C489.757355,409.828339 489.611603,410.160919 489.447571,410.437592 
	C489.429321,410.381653 489.540466,410.420380 489.212463,410.452850 
	C488.632111,411.043915 488.379761,411.602509 488.084717,412.102783 
	C488.041992,412.044434 488.159668,412.128479 487.830902,412.134521 
	C487.147034,412.607208 486.791901,413.073822 486.447937,413.554932 
	C486.459137,413.569458 486.472748,413.603424 486.101532,413.468048 
	C484.810699,414.577362 483.891083,415.822021 482.891724,417.150513 
	C482.811951,417.234375 482.622253,417.101776 482.277527,417.252258 
	C481.657623,417.811340 481.382477,418.219971 481.165741,418.728912 
	C481.224152,418.829224 481.044525,418.976227 480.676758,418.986328 
	C475.863983,423.537201 471.418945,428.078003 466.839996,432.792755 
	C466.706055,432.966705 466.281647,433.079346 466.008423,433.184509 
	C465.515137,433.602020 465.295135,433.914398 465.036560,434.434753 
	C464.865845,434.923798 464.645691,435.083405 463.991028,435.132721 
	C463.112061,435.781403 462.579559,436.418945 462.024170,437.028259 
	C462.001282,437.000000 462.056610,437.047516 461.732513,437.086182 
	C460.967377,437.785645 460.526337,438.446472 460.054260,439.056458 
	C460.023193,439.005615 460.110229,439.087006 459.752136,439.103271 
	C457.610718,441.095825 455.827362,443.072174 454.044006,445.048523 
	C454.043976,445.048492 454.001221,445.000000 453.653320,445.010162 
	C448.737549,448.956329 445.287842,446.428223 441.856018,443.147949 
	C440.626129,441.972382 439.082703,441.124878 437.682343,440.127686 
	C437.378113,440.008911 437.167603,439.797028 437.029846,438.854431 
	C437.554382,431.693054 439.686066,426.085510 445.296692,422.043365 
	C446.918793,420.874756 447.740509,418.595245 448.929138,416.825012 
	C448.929169,416.825012 448.913208,416.914154 449.227844,416.892822 
	C452.025940,414.237335 454.509369,411.603180 456.992798,408.968994 
z"/>
<path fill="#F5F6F8" opacity="1.000000" stroke="none" 
	d="
M370.336243,592.133423 
	C372.701508,584.600464 375.182983,577.516235 377.100037,570.282471 
	C378.476440,565.088928 382.362549,566.920410 385.522644,566.576538 
	C388.571259,566.244873 390.787598,566.795654 391.830658,570.454590 
	C394.566406,580.051392 397.733856,589.525513 400.755219,599.040222 
	C401.241669,600.572083 401.861664,602.061584 402.885803,604.830139 
	C406.583984,591.513489 409.925842,579.479797 413.354340,567.134155 
	C418.170319,567.134155 422.903870,567.134155 428.186401,567.134155 
	C424.540619,579.179077 420.993500,591.066345 417.334229,602.918945 
	C415.419983,609.119141 413.101715,615.201599 411.379822,621.451294 
	C410.601074,624.277832 409.378418,625.211304 406.556671,625.024902 
	C403.080963,624.795227 399.578552,624.969971 395.615234,624.969971 
	C391.980194,614.163574 388.346649,603.361633 384.252716,591.191162 
	C382.239929,597.433228 380.629944,602.405334 379.035217,607.382263 
	C378.426117,609.283203 377.894257,611.209717 377.255005,613.100159 
	C372.994720,625.699036 372.988373,625.696899 359.250854,624.696655 
	C352.739319,605.668579 346.192474,586.537231 339.432037,566.781677 
	C344.170044,566.781677 348.624176,566.524658 353.012207,566.949524 
	C354.217072,567.066223 355.773376,569.046021 356.233398,570.472412 
	C359.245880,579.814026 361.997223,589.239685 364.846039,598.634277 
	C365.309906,600.164001 365.834320,601.675415 367.344177,603.193237 
	C368.299744,599.634888 369.255341,596.076599 370.336243,592.133423 
z"/>
<path fill="#F5F6F8" opacity="1.000000" stroke="none" 
	d="
M332.478241,615.445312 
	C323.721710,625.748718 307.192413,629.642578 293.788422,624.790649 
	C282.650330,620.759033 276.122925,612.663391 275.949249,602.284058 
	C278.121216,601.945068 280.357635,601.520447 282.613251,601.264954 
	C284.910400,601.004761 287.226471,600.910950 289.437042,600.751282 
	C294.107269,611.546021 303.576324,615.941589 313.792023,612.196838 
	C317.371033,610.884888 320.544403,608.917053 320.939575,604.690918 
	C321.337708,600.433228 318.174286,598.338562 314.938995,596.995605 
	C309.578186,594.770325 303.907196,593.291992 298.547760,591.063965 
	C293.987671,589.168335 289.092896,587.372437 285.370667,584.293762 
	C272.097717,573.315613 276.238495,552.516174 292.650513,547.073486 
	C301.415771,544.166687 310.285339,544.301697 319.080933,547.621277 
	C325.457764,550.028015 329.462585,554.415283 331.941864,560.659668 
	C333.577881,564.780090 332.440369,567.072632 328.293457,568.013062 
	C326.048340,568.522095 323.749817,568.795776 321.634827,569.148987 
	C315.773010,559.734863 308.537933,556.440491 299.917084,559.068054 
	C296.180725,560.206787 293.304352,562.274353 292.859528,566.524109 
	C292.406250,570.854736 294.926422,573.494507 298.476562,575.023621 
	C302.892731,576.925964 307.533051,578.300781 312.032043,580.019897 
	C316.219971,581.620239 320.568512,582.977478 324.464020,585.132690 
	C336.589386,591.841431 339.548035,603.089905 332.478241,615.445312 
z"/>
<path fill="#15CBBF" opacity="1.000000" stroke="none" 
	d="
M560.103333,625.026367 
	C557.822449,625.022461 556.011780,625.022461 553.737793,625.022461 
	C553.737793,599.034546 553.737793,573.519104 553.737793,547.534729 
	C562.193604,547.534729 570.483032,547.173340 578.726257,547.635498 
	C587.112244,548.105774 595.905579,548.025879 603.710632,550.621948 
	C616.491882,554.873108 620.970032,564.643494 619.036438,578.934387 
	C617.570374,589.769775 607.474854,599.872192 596.249756,600.926575 
	C589.321655,601.577332 582.294128,601.377502 575.318237,601.229187 
	C571.489075,601.147766 569.832336,602.420288 569.954895,606.369019 
	C570.139526,612.319885 570.002930,618.280579 570.002930,625.030212 
	C566.415039,625.030212 563.494263,625.030212 560.103333,625.026367 
M599.718628,583.731323 
	C599.718628,583.731323 599.617310,583.700195 600.171326,583.588501 
	C600.303772,583.260254 600.436218,582.932007 600.528503,582.605835 
	C600.528503,582.605835 600.526672,582.565674 601.323730,582.547302 
	C604.096191,579.941284 605.295532,569.758972 603.040039,566.956116 
	C602.614014,566.426636 601.560791,566.401917 600.890076,566.108398 
	C600.890076,566.108398 600.852966,566.201050 600.848999,565.463806 
	C598.871460,563.955444 597.010315,561.360901 594.895508,561.134399 
	C587.369202,560.328491 579.757507,560.212036 572.175781,560.156128 
	C571.105774,560.148132 569.165649,561.856262 569.083557,562.885986 
	C568.520386,569.949402 568.276367,577.042175 568.128296,584.129761 
	C568.108948,585.058044 569.222534,586.010010 570.140503,587.345825 
	C570.206970,587.503662 570.273499,587.661499 570.085266,588.347412 
	C577.394043,588.532471 584.702515,588.766663 592.012268,588.818665 
	C592.670288,588.823364 593.336731,587.650574 594.253906,586.821594 
	C594.253906,586.821594 594.578613,586.845764 595.362366,586.925598 
	C596.456482,586.132507 597.550537,585.339417 598.713928,584.621338 
	C598.713928,584.621338 598.614929,584.646545 599.177979,584.575073 
	C599.351562,584.259155 599.525146,583.943176 599.718628,583.731323 
z"/>
<path fill="#18C7BD" opacity="1.000000" stroke="none" 
	d="
M678.728210,624.998169 
	C674.504944,624.502014 669.881775,627.064880 667.315063,621.534912 
	C660.566223,625.988647 653.277771,627.710754 645.373352,626.762756 
	C634.231750,625.426514 626.597229,618.176880 626.029724,608.592834 
	C625.646057,602.112854 628.617676,597.833008 634.063965,594.859375 
	C640.903137,591.125427 648.368286,590.735352 655.904480,590.685059 
	C657.237183,590.676147 658.605225,590.859497 659.894714,590.619507 
	C662.158813,590.198120 664.374756,589.517883 666.610840,588.946045 
	C665.644592,586.367371 665.243286,583.331726 663.600098,581.300659 
	C659.595398,576.350525 647.590881,575.803223 644.252747,580.848328 
	C641.227722,585.420166 637.668518,585.056580 633.530212,584.581604 
	C631.436340,584.341309 629.357788,583.968323 626.934509,583.604553 
	C628.236206,577.056824 630.911255,571.985352 636.299316,568.961792 
	C647.271423,562.804810 658.700134,562.770752 669.811523,568.250916 
	C677.270386,571.929626 681.912476,578.431152 682.244446,586.921936 
	C682.699585,598.561829 682.560852,610.229614 682.393799,621.881348 
	C682.378723,622.932373 680.299500,623.953857 678.728210,624.998169 
M654.623413,602.137573 
	C652.004211,602.366699 648.961548,601.851379 646.884094,603.032898 
	C644.778564,604.230469 642.722900,606.969666 642.374817,609.292664 
	C642.142273,610.844788 644.648315,614.004700 646.422974,614.442627 
	C652.529114,615.949341 658.762573,615.727844 663.359009,610.513428 
	C665.145630,608.486694 666.128662,605.751526 668.151794,602.133545 
	C662.776733,602.133545 659.176147,602.133545 654.623413,602.137573 
z"/>
<path fill="#F5F6F8" opacity="1.000000" stroke="none" 
	d="
M485.049683,544.940491 
	C489.276276,544.885681 493.112701,544.627319 496.898529,544.954224 
	C502.143219,545.407104 501.878082,548.919189 501.276550,553.017517 
	C500.659698,557.220337 499.251678,559.370117 494.601929,558.615051 
	C484.404114,556.959106 483.238861,558.123047 483.913208,569.056458 
	C485.669067,569.056458 487.458435,569.056458 489.247772,569.056458 
	C491.068817,569.056458 492.889862,569.056458 494.963257,569.056458 
	C494.963257,573.375854 494.963257,577.484192 494.963257,581.999939 
	C491.513275,581.999939 488.092163,581.999939 484.082825,581.999939 
	C484.082825,596.443176 484.082825,610.498169 484.082825,624.787231 
	C478.904297,624.787231 474.316742,624.787231 469.241089,624.787231 
	C469.241089,610.720459 469.241089,596.791931 469.241089,582.374939 
	C466.394592,582.193970 463.992584,582.041199 461.281616,581.868774 
	C461.281616,577.394165 461.281616,573.007385 461.281616,568.344116 
	C463.800232,568.344116 466.080750,568.344116 468.768524,568.344116 
	C468.537201,556.676025 472.406921,547.888062 485.049683,544.940491 
z"/>
<path fill="#F5F6F8" opacity="1.000000" stroke="none" 
	d="
M510.072754,609.706238 
	C510.022766,600.472778 510.022766,591.664124 510.022766,582.307983 
	C506.891357,582.307983 504.167877,582.307983 501.264343,582.307983 
	C501.264343,577.354614 501.264343,572.953308 501.264343,568.218384 
	C504.027435,568.053162 506.604279,567.899109 509.716370,567.713074 
	C509.716370,563.755554 509.716370,560.000610 509.716370,556.043457 
	C514.785095,555.401978 519.339172,554.825623 524.496521,554.172913 
	C524.496521,558.734070 524.496521,563.274902 524.496521,567.992249 
	C529.176208,567.992249 533.264832,567.992249 537.701294,567.992249 
	C537.701294,572.734863 537.701294,577.298096 537.701294,582.185059 
	C533.593323,582.185059 529.462585,582.185059 524.793518,582.185059 
	C524.793518,590.270996 524.513367,598.068420 524.900269,605.832642 
	C525.126404,610.370789 528.703247,612.178711 532.886658,612.541931 
	C534.991516,612.724670 537.125366,612.573792 539.571045,612.573792 
	C539.571045,616.469238 539.571045,620.562195 539.571045,624.672119 
	C522.816345,628.154114 512.325500,622.153748 510.072754,609.706238 
z"/>
<path fill="#23BEBA" opacity="1.000000" stroke="none" 
	d="
M721.772949,635.901489 
	C719.714050,643.625122 714.835815,646.131287 707.566650,645.006714 
	C705.671204,644.713562 703.691895,644.962524 700.982056,644.962524 
	C704.828857,637.134827 708.170959,629.935669 711.895630,622.940247 
	C713.509277,619.909790 713.220215,617.736206 711.596558,614.708313 
	C704.525391,601.521240 697.886597,588.102783 691.046204,574.791199 
	C689.691895,572.155579 688.141541,569.620789 686.015564,565.862061 
	C691.901123,565.862061 696.995056,565.396179 701.918579,566.108215 
	C703.704407,566.366516 705.534302,569.213196 706.567383,571.269165 
	C710.451904,578.999390 713.971680,586.912048 717.732666,594.705872 
	C718.629089,596.563477 719.930542,598.225647 721.711121,601.023193 
	C723.797729,596.756287 725.398438,593.560608 726.931274,590.332764 
	C730.285950,583.268066 733.503845,576.135254 737.028503,569.156982 
	C737.721985,567.783997 739.474060,566.187134 740.860657,566.062866 
	C745.280701,565.666870 749.758606,565.916077 755.150208,565.916077 
	C743.762329,589.794617 732.848694,612.678772 721.772949,635.901489 
M728.395447,599.725159 
	C726.745544,600.799927 725.199768,602.132385 723.408020,602.855896 
	C722.274719,603.313599 720.337158,603.400940 719.512268,602.730042 
	C715.181030,599.206970 711.089600,595.389099 707.296570,592.013245 
	C708.125854,589.439148 708.737122,587.541809 709.348328,585.644470 
	C708.433044,585.617737 706.863647,585.282349 706.707214,585.613708 
	C705.587463,587.986389 704.604492,590.454468 703.925964,592.985413 
	C703.729126,593.719666 704.670227,594.755676 705.081970,595.656921 
	C706.453796,598.659546 707.808655,601.670105 709.207092,604.660278 
	C709.401001,605.074829 709.803467,605.391846 710.315796,605.998413 
	C711.314758,605.232788 712.231018,604.530640 713.147278,603.828491 
	C713.619812,604.001343 714.092346,604.174194 714.564880,604.347046 
	C714.092346,606.446594 713.619812,608.546143 713.017273,611.223206 
	C716.922119,616.917236 716.630615,619.334900 712.669312,626.140381 
	C709.885559,630.922607 708.069275,636.268005 705.808044,641.391235 
	C714.648132,643.130798 714.832458,643.226929 718.481506,636.228943 
	C721.034241,631.333435 722.638184,625.928406 725.339294,621.130005 
	C727.433533,617.409851 730.999390,614.370422 728.302124,611.073059 
	C730.522278,607.850037 732.391968,605.497620 733.863831,602.918152 
	C736.348450,598.563599 738.701965,594.123901 740.891174,589.613464 
	C744.173401,582.851440 747.265686,575.997314 750.438782,569.182312 
	C750.003174,568.835938 749.567566,568.489563 749.131958,568.143188 
	C745.154602,569.471191 739.336670,566.607422 738.071106,574.137085 
	C737.627930,576.773865 736.496216,579.683289 734.749207,581.636902 
	C730.222168,586.699524 727.761719,592.213806 728.395447,599.725159 
z"/>
<path fill="#F5F6F8" opacity="1.000000" stroke="none" 
	d="
M436.565674,602.999268 
	C436.564789,590.874084 436.564789,579.248840 436.564789,567.292114 
	C441.430450,567.292114 446.295380,567.292114 451.414062,567.292114 
	C451.414062,586.514587 451.414062,605.449585 451.414062,624.776733 
	C446.613770,624.776733 441.893555,624.776733 436.566528,624.776733 
	C436.566528,617.685974 436.566528,610.592590 436.565674,602.999268 
z"/>
<path fill="#18C7BD" opacity="1.000000" stroke="none" 
	d="
M537.554749,414.048859 
	C540.546204,414.717133 543.512512,415.780487 546.534302,415.973450 
	C553.329346,416.407318 560.186584,416.049561 566.952454,416.700684 
	C572.432373,417.227997 576.576660,420.508789 578.372314,425.837982 
	C580.124207,431.037354 577.973511,435.252167 573.948425,438.625580 
	C572.168213,440.117554 570.335266,441.546570 567.954163,442.784973 
	C565.163757,433.854279 561.684998,430.713409 552.710144,429.757172 
	C549.270508,429.390686 545.779480,429.494751 542.311279,429.411804 
	C537.754761,429.302826 532.588501,429.255768 531.119385,424.112061 
	C529.728638,419.242645 533.961670,416.516144 537.554749,414.048859 
z"/>
<path fill="#F5F6F8" opacity="1.000000" stroke="none" 
	d="
M452.422638,546.863159 
	C453.071228,553.991211 450.498932,558.288147 445.494019,559.053223 
	C438.844330,560.069641 435.167053,557.887634 433.738922,552.077881 
	C432.615326,547.507019 434.703613,543.081482 438.805298,541.341187 
	C443.762604,539.237854 448.928894,541.218201 452.422638,546.863159 
z"/>
<path fill="#F5F6F8" opacity="1.000000" stroke="none" 
	d="
M537.684814,413.759644 
	C533.961670,416.516144 529.728638,419.242645 531.119385,424.112061 
	C532.588501,429.255768 537.754761,429.302826 542.311279,429.411804 
	C545.779480,429.494751 549.270508,429.390686 552.710144,429.757172 
	C561.684998,430.713409 565.163757,433.854279 567.608643,442.873596 
	C567.057495,444.637390 566.279785,446.093323 565.214417,447.676697 
	C563.798767,443.995087 563.192078,439.921570 561.424133,436.437286 
	C558.566406,430.805450 552.319824,432.351929 547.471008,431.112518 
	C545.131958,430.514618 542.514771,431.003937 540.023560,431.002167 
	C533.947632,430.997833 529.054810,428.161774 528.278015,424.193176 
	C527.584778,420.651367 531.199097,415.346191 535.875366,413.069824 
	C536.619507,412.707550 537.398438,412.416687 538.508179,412.026489 
	C538.508362,412.463593 538.161560,412.967010 537.684814,413.759644 
z"/>
<path fill="#23BEBA" opacity="1.000000" stroke="none" 
	d="
M448.600861,416.925110 
	C447.740509,418.595245 446.918793,420.874756 445.296692,422.043365 
	C439.686066,426.085510 437.554382,431.693054 436.990967,438.628357 
	C433.609894,435.127289 435.031281,431.034637 437.540161,427.809967 
	C440.631409,423.836761 444.653046,420.587402 448.600861,416.925110 
z"/>
<path fill="#23BEBA" opacity="1.000000" stroke="none" 
	d="
M437.770050,440.466553 
	C439.082703,441.124878 440.626129,441.972382 441.856018,443.147949 
	C445.287842,446.428223 448.737549,448.956329 453.677429,445.032043 
	C453.690491,445.685364 453.331543,446.326935 452.611755,447.403717 
	C451.411713,448.530365 450.572510,449.221802 449.733276,449.913239 
	C445.774780,446.877319 441.816254,443.841400 437.770050,440.466553 
z"/>
<path fill="#23BEBA" opacity="1.000000" stroke="none" 
	d="
M456.676819,409.078217 
	C454.509369,411.603180 452.025940,414.237335 449.185303,416.877350 
	C451.339020,414.317932 453.849945,411.752686 456.676819,409.078217 
z"/>
<path fill="#F5F6F8" opacity="1.000000" stroke="none" 
	d="
M449.732635,450.281921 
	C450.572510,449.221802 451.411713,448.530365 452.546997,447.675720 
	C452.613617,449.719696 452.384186,451.926788 452.087341,454.531860 
	C451.257263,453.503387 450.494629,452.077026 449.732635,450.281921 
z"/>
<path fill="#F5F6F8" opacity="1.000000" stroke="none" 
	d="
M507.207703,352.922089 
	C507.031952,352.487213 507.213501,352.067322 507.398956,351.412201 
	C508.022400,350.847839 508.641907,350.518677 509.633362,350.237366 
	C509.191895,351.169128 508.378418,352.053101 507.207703,352.922089 
z"/>
<path fill="#F5F6F8" opacity="1.000000" stroke="none" 
	d="
M493.984558,368.838074 
	C494.243439,367.683502 494.136261,366.206146 494.822296,365.428192 
	C498.534302,361.218567 502.442627,357.181976 506.595398,352.968506 
	C504.507050,356.617615 502.106567,360.384003 499.029358,365.212158 
	C505.603241,362.858521 511.025574,363.989166 515.441528,368.248962 
	C508.044739,368.699188 501.014648,368.768616 493.984558,368.838074 
z"/>
<path fill="#F5F6F8" opacity="1.000000" stroke="none" 
	d="
M481.044525,418.976227 
	C481.044525,418.976227 481.224152,418.829224 481.523682,418.593994 
	C482.089569,417.939728 482.355896,417.520752 482.622253,417.101776 
	C482.622253,417.101776 482.811951,417.234375 483.218719,417.083923 
	C484.574585,415.823486 485.523682,414.713470 486.472748,413.603424 
	C486.472748,413.603424 486.459137,413.569458 486.745911,413.524658 
	C487.408325,413.029419 487.783997,412.578949 488.159668,412.128479 
	C488.159668,412.128479 488.041992,412.044434 488.373413,412.007263 
	C488.983398,411.453522 489.261932,410.936951 489.540466,410.420380 
	C489.540466,410.420380 489.429321,410.381653 489.710815,410.390198 
	C490.158508,410.102417 490.324707,409.806061 490.490906,409.509705 
	C490.490875,409.509674 490.310364,409.544464 490.694031,409.518921 
	C491.445526,409.048401 491.813385,408.603424 492.181244,408.158447 
	C492.181244,408.158447 491.995911,408.083282 492.376556,408.044556 
	C493.552856,407.088165 494.348511,406.170532 495.144196,405.252930 
	C495.746765,404.829865 496.349335,404.406799 497.349182,403.565552 
	C498.577576,402.160370 499.408691,401.173401 500.239777,400.186432 
	C500.239777,400.186432 500.137115,400.153778 500.443237,400.151367 
	C501.113617,400.046204 501.477875,399.943420 501.903046,399.901703 
	C501.963928,399.962769 502.086517,400.084076 502.086517,400.084076 
	C500.816376,402.174744 499.822357,404.511597 498.221283,406.307159 
	C494.341309,410.658325 490.410095,415.017273 486.065948,418.886261 
	C481.565430,422.894562 476.554169,426.329376 471.375946,430.004578 
	C470.985596,429.994141 470.925659,429.921997 471.045837,429.609741 
	C474.458893,425.857086 477.751709,422.416656 481.044525,418.976227 
z"/>
<path fill="#F5F6F8" opacity="1.000000" stroke="none" 
	d="
M518.987915,369.033234 
	C524.150269,368.564941 528.330383,374.246613 525.039917,378.278778 
	C520.010498,384.441895 513.622559,389.496399 507.393555,394.996826 
	C506.975739,394.972046 506.854492,394.853851 506.995178,394.554688 
	C509.102905,392.177277 511.069916,390.099030 513.036926,388.020813 
	C513.036926,388.020813 512.999756,388.000000 513.310425,387.918762 
	C514.446533,386.914429 515.271973,385.991302 516.097412,385.068146 
	C516.097412,385.068146 516.014404,385.015503 516.364136,384.944794 
	C524.616089,377.556732 525.050293,374.532135 518.987915,369.033234 
z"/>
<path fill="#23BEBA" opacity="1.000000" stroke="none" 
	d="
M518.605347,369.042664 
	C525.050293,374.532135 524.616089,377.556732 516.391785,384.985443 
	C516.764221,383.504547 517.540955,381.942139 518.132324,380.312469 
	C518.857910,378.313110 520.563416,375.478638 519.819824,374.395203 
	C518.450928,372.400513 515.714417,370.481323 513.349731,370.200806 
	C507.150726,369.465424 500.845001,369.629486 494.283203,369.136597 
	C501.014648,368.768616 508.044739,368.699188 515.539856,368.569824 
	C516.744141,368.690674 517.483459,368.871368 518.605347,369.042664 
z"/>
<path fill="#F5F6F8" opacity="1.000000" stroke="none" 
	d="
M466.281677,433.079346 
	C466.281647,433.079346 466.706055,432.966705 467.122314,432.743042 
	C468.322296,431.976288 469.106018,431.433197 469.931183,430.925415 
	C469.972626,430.960754 470.060852,431.024658 470.060852,431.024658 
	C469.914886,437.642242 463.860870,438.237762 459.620850,440.735962 
	C459.589172,440.023499 459.849701,439.555267 460.110229,439.087006 
	C460.110229,439.087006 460.023193,439.005615 460.339294,438.959930 
	C461.122467,438.291992 461.589508,437.669739 462.056580,437.047485 
	C462.056610,437.047516 462.001282,437.000000 462.323975,436.946655 
	C463.210266,436.302734 463.773895,435.712158 464.337524,435.121582 
	C464.645691,435.083405 464.865845,434.923798 465.304230,434.321533 
	C465.834198,433.693329 466.057953,433.386353 466.281677,433.079346 
z"/>
<path fill="#23BEBA" opacity="1.000000" stroke="none" 
	d="
M459.752136,439.103271 
	C459.849701,439.555267 459.589172,440.023499 459.257324,440.754395 
	C459.186066,441.017090 459.040131,441.016113 458.766785,441.161865 
	C458.038116,441.880615 457.582855,442.453613 457.127563,443.026611 
	C457.127563,443.026611 457.006226,443.023590 456.789490,443.134888 
	C456.289459,443.418030 456.155853,443.669434 456.171906,444.000366 
	C455.653473,444.290131 455.135040,444.579895 454.330322,444.959076 
	C455.827362,443.072174 457.610718,441.095825 459.752136,439.103271 
z"/>
<path fill="#F5F6F8" opacity="1.000000" stroke="none" 
	d="
M507.037170,395.030334 
	C505.652313,396.698639 504.206024,398.308594 502.423157,400.001343 
	C502.086517,400.084076 501.963928,399.962769 501.962891,399.622681 
	C502.052948,398.917480 502.144043,398.552399 502.235107,398.187317 
	C502.235107,398.187317 502.158081,398.038666 502.482941,398.032349 
	C504.156708,396.968658 505.505615,395.911255 506.854492,394.853882 
	C506.854492,394.853851 506.975739,394.972046 507.037170,395.030334 
z"/>
<path fill="#F5F6F8" opacity="1.000000" stroke="none" 
	d="
M457.412354,442.961975 
	C457.582855,442.453613 458.038116,441.880615 458.765930,441.234802 
	C458.591339,441.740509 458.144226,442.318939 457.412354,442.961975 
z"/>
<path fill="#F5F6F8" opacity="1.000000" stroke="none" 
	d="
M471.012787,430.032349 
	C470.892609,430.346832 470.696320,430.582336 470.255981,430.900879 
	C470.060852,431.024658 469.972626,430.960754 470.016785,430.684937 
	C470.349182,430.246735 470.637421,430.084381 470.925659,429.921997 
	C470.925659,429.921997 470.985596,429.994141 471.012787,430.032349 
z"/>
<path fill="#F5F6F8" opacity="1.000000" stroke="none" 
	d="
M456.337830,443.885712 
	C456.155853,443.669434 456.289459,443.418030 456.789368,443.195587 
	C456.878906,443.386017 456.711517,443.594696 456.337830,443.885712 
z"/>
<path fill="#23BEBA" opacity="1.000000" stroke="none" 
	d="
M471.045837,429.609741 
	C470.637421,430.084381 470.349182,430.246735 469.975342,430.649597 
	C469.106018,431.433197 468.322296,431.976288 467.256256,432.569092 
	C471.418945,428.078003 475.863983,423.537201 480.676758,418.986328 
	C477.751709,422.416656 474.458893,425.857086 471.045837,429.609741 
z"/>
<path fill="#23BEBA" opacity="1.000000" stroke="none" 
	d="
M506.995209,394.554688 
	C505.505615,395.911255 504.156708,396.968658 502.498535,398.114594 
	C505.560852,394.805206 508.932434,391.407318 512.670532,388.015106 
	C511.069916,390.099030 509.102905,392.177277 506.995209,394.554688 
z"/>
<path fill="#23BEBA" opacity="1.000000" stroke="none" 
	d="
M494.932312,405.000854 
	C494.348511,406.170532 493.552856,407.088165 492.463135,408.094971 
	C493.019501,407.039001 493.869965,405.893890 494.932312,405.000854 
z"/>
<path fill="#23BEBA" opacity="1.000000" stroke="none" 
	d="
M486.101532,413.468048 
	C485.523682,414.713470 484.574585,415.823486 483.298462,417.000092 
	C483.891083,415.822021 484.810699,414.577362 486.101532,413.468048 
z"/>
<path fill="#23BEBA" opacity="1.000000" stroke="none" 
	d="
M499.861450,400.178436 
	C499.408691,401.173401 498.577576,402.160370 497.446411,403.300629 
	C497.925293,402.359406 498.704224,401.264923 499.861450,400.178436 
z"/>
<path fill="#23BEBA" opacity="1.000000" stroke="none" 
	d="
M515.724976,385.054871 
	C515.271973,385.991302 514.446533,386.914429 513.321045,387.937317 
	C513.798218,387.038574 514.575378,386.040100 515.724976,385.054871 
z"/>
<path fill="#23BEBA" opacity="1.000000" stroke="none" 
	d="
M501.886475,398.185944 
	C502.144043,398.552399 502.052948,398.917480 501.902008,399.561584 
	C501.477875,399.943420 501.113617,400.046204 500.468323,400.199036 
	C500.637482,399.560944 501.087646,398.872772 501.886475,398.185944 
z"/>
<path fill="#23BEBA" opacity="1.000000" stroke="none" 
	d="
M463.991028,435.132690 
	C463.773895,435.712158 463.210266,436.302734 462.346863,436.974915 
	C462.579559,436.418945 463.112061,435.781403 463.991028,435.132690 
z"/>
<path fill="#23BEBA" opacity="1.000000" stroke="none" 
	d="
M461.732483,437.086182 
	C461.589508,437.669739 461.122467,438.291992 460.370361,439.010742 
	C460.526337,438.446472 460.967377,437.785645 461.732483,437.086182 
z"/>
<path fill="#23BEBA" opacity="1.000000" stroke="none" 
	d="
M487.830902,412.134521 
	C487.783997,412.578949 487.408325,413.029419 486.734711,413.510162 
	C486.791901,413.073822 487.147034,412.607208 487.830902,412.134521 
z"/>
<path fill="#23BEBA" opacity="1.000000" stroke="none" 
	d="
M489.212463,410.452850 
	C489.261932,410.936951 488.983398,411.453522 488.416138,412.065613 
	C488.379761,411.602509 488.632111,411.043915 489.212463,410.452850 
z"/>
<path fill="#23BEBA" opacity="1.000000" stroke="none" 
	d="
M491.848938,408.158264 
	C491.813385,408.603424 491.445526,409.048401 490.784119,409.536987 
	C490.832581,409.106476 491.174622,408.632294 491.848938,408.158264 
z"/>
<path fill="#23BEBA" opacity="1.000000" stroke="none" 
	d="
M466.008423,433.184509 
	C466.057953,433.386353 465.834198,433.693329 465.342773,434.113556 
	C465.295135,433.914398 465.515137,433.602020 466.008423,433.184509 
z"/>
<path fill="#23BEBA" opacity="1.000000" stroke="none" 
	d="
M482.277496,417.252258 
	C482.355896,417.520752 482.089569,417.939728 481.465271,418.493652 
	C481.382477,418.219971 481.657623,417.811340 482.277496,417.252258 
z"/>
<path fill="#23BEBA" opacity="1.000000" stroke="none" 
	d="
M490.197021,409.502747 
	C490.324707,409.806061 490.158508,410.102417 489.729065,410.446167 
	C489.611603,410.160919 489.757355,409.828339 490.197021,409.502747 
z"/>
<path fill="#101E40" opacity="1.000000" stroke="none" 
	d="
M594.578613,586.845764 
	C594.578613,586.845764 594.253906,586.821594 593.674988,586.919800 
	C585.510681,587.285156 577.925354,587.552246 570.339966,587.819397 
	C570.273499,587.661499 570.206970,587.503662 570.043457,586.688721 
	C569.946350,577.984009 569.946350,569.936340 569.946350,561.965820 
	C587.875549,560.546082 592.423096,561.192993 600.852966,566.201050 
	C600.852966,566.201050 600.890076,566.108398 600.931274,566.494080 
	C604.688171,572.218201 602.492859,577.388672 600.526672,582.565674 
	C600.526672,582.565674 600.528503,582.605835 600.290894,582.677795 
	C599.907959,583.066589 599.762634,583.383362 599.617310,583.700195 
	C599.617310,583.700195 599.718628,583.731323 599.442017,583.741089 
	C598.981873,584.049438 598.798401,584.347961 598.614929,584.646545 
	C598.614929,584.646545 598.713928,584.621338 598.353149,584.646484 
	C596.854492,585.396362 595.716553,586.121033 594.578613,586.845764 
z"/>
<path fill="#23BEBA" opacity="1.000000" stroke="none" 
	d="
M600.850952,565.832397 
	C592.423096,561.192993 587.875549,560.546082 569.946350,561.965820 
	C569.946350,569.936340 569.946350,577.984009 569.878906,586.491333 
	C569.222534,586.010010 568.108948,585.058044 568.128296,584.129761 
	C568.276367,577.042175 568.520386,569.949402 569.083557,562.885986 
	C569.165649,561.856262 571.105774,560.148132 572.175781,560.156128 
	C579.757507,560.212036 587.369202,560.328491 594.895508,561.134399 
	C597.010315,561.360901 598.871460,563.955444 600.850952,565.832397 
z"/>
<path fill="#23BEBA" opacity="1.000000" stroke="none" 
	d="
M570.212646,588.083374 
	C577.925354,587.552246 585.510681,587.285156 593.547668,587.021301 
	C593.336731,587.650574 592.670288,588.823364 592.012268,588.818665 
	C584.702515,588.766663 577.394043,588.532471 570.212646,588.083374 
z"/>
<path fill="#23BEBA" opacity="1.000000" stroke="none" 
	d="
M600.925171,582.556519 
	C602.492859,577.388672 604.688171,572.218201 600.884644,566.512024 
	C601.560791,566.401917 602.614014,566.426636 603.040039,566.956116 
	C605.295532,569.758972 604.096191,579.941284 600.925171,582.556519 
z"/>
<path fill="#23BEBA" opacity="1.000000" stroke="none" 
	d="
M594.970459,586.885681 
	C595.716553,586.121033 596.854492,585.396362 598.318481,584.609009 
	C597.550537,585.339417 596.456482,586.132507 594.970459,586.885681 
z"/>
<path fill="#23BEBA" opacity="1.000000" stroke="none" 
	d="
M599.894287,583.644348 
	C599.762634,583.383362 599.907959,583.066589 600.311035,582.676758 
	C600.436218,582.932007 600.303772,583.260254 599.894287,583.644348 
z"/>
<path fill="#23BEBA" opacity="1.000000" stroke="none" 
	d="
M598.896484,584.610840 
	C598.798401,584.347961 598.981873,584.049438 599.432068,583.689087 
	C599.525146,583.943176 599.351562,584.259155 598.896484,584.610840 
z"/>
<path fill="#101E40" opacity="1.000000" stroke="none" 
	d="
M655.099487,602.135559 
	C659.176147,602.133545 662.776733,602.133545 668.151794,602.133545 
	C666.128662,605.751526 665.145630,608.486694 663.359009,610.513428 
	C658.762573,615.727844 652.529114,615.949341 646.422974,614.442627 
	C644.648315,614.004700 642.142273,610.844788 642.374817,609.292664 
	C642.722900,606.969666 644.778564,604.230469 646.884094,603.032898 
	C648.961548,601.851379 652.004211,602.366699 655.099487,602.135559 
z"/>
<path fill="#15CBBF" opacity="1.000000" stroke="none" 
	d="
M728.560669,599.388184 
	C727.761719,592.213806 730.222168,586.699524 734.749207,581.636902 
	C736.496216,579.683289 737.627930,576.773865 738.071106,574.137085 
	C739.336670,566.607422 745.154602,569.471191 749.131958,568.143188 
	C749.567566,568.489563 750.003174,568.835938 750.438782,569.182312 
	C747.265686,575.997314 744.173401,582.851440 740.891174,589.613464 
	C738.701965,594.123901 736.348450,598.563599 733.863831,602.918152 
	C732.391968,605.497620 730.522278,607.850037 728.302124,611.073059 
	C730.999390,614.370422 727.433533,617.409851 725.339294,621.130005 
	C722.638184,625.928406 721.034241,631.333435 718.481506,636.228943 
	C714.832458,643.226929 714.648132,643.130798 705.808044,641.391235 
	C708.069275,636.268005 709.885559,630.922607 712.669312,626.140381 
	C716.630615,619.334900 716.922119,616.917236 713.017273,611.223206 
	C713.619812,608.546143 714.092346,606.446594 714.564880,604.347046 
	C714.092346,604.174194 713.619812,604.001343 713.147278,603.828491 
	C712.231018,604.530640 711.314758,605.232788 710.315796,605.998413 
	C709.803467,605.391846 709.401001,605.074829 709.207092,604.660278 
	C707.808655,601.670105 706.453796,598.659546 705.081970,595.656921 
	C704.670227,594.755676 703.729126,593.719666 703.925964,592.985413 
	C704.604492,590.454468 705.587463,587.986389 706.707214,585.613708 
	C706.863647,585.282349 708.433044,585.617737 709.348328,585.644470 
	C708.737122,587.541809 708.125854,589.439148 707.296570,592.013245 
	C711.089600,595.389099 715.181030,599.206970 719.512268,602.730042 
	C720.337158,603.400940 722.274719,603.313599 723.408020,602.855896 
	C725.199768,602.132385 726.745544,600.799927 728.560669,599.388184 
z"/>
</svg>